<svg width="300" height="300" viewBox="0 0 300 300" preserveAspectRatio="xMinYMin meet" xmlns="http://www.w3.org/2000/svg"><title>icon-bigbrother</title><path d="M0 246.258V300h43.665A175.708 175.708 0 0 1 0 246.258zM300 67.014V0h-86.603c35.55 12.58 65.821 36.32 86.603 67.014zM96.572 0H0v83.72C20.362 44.967 54.825 14.786 96.572 0zM300 262.987A175.958 175.958 0 0 1 266.335 300H300v-37.013z" fill="#1977BC"/><path d="M40.496 248.037c92.872 5.378 182.913-18.124 259.504-67.484v82.434A175.958 175.958 0 0 1 266.335 300H116.559c-27.021-13.163-52.551-30.32-76.063-51.963 1.211 17.763 3.57 34.97 7.126 51.963h-3.957A175.71 175.71 0 0 1 0 246.257v-11.899c13.103 5.27 26.543 9.808 40.496 13.68zm0 0C54.427 152.445 98.273 66.117 166.29 0H96.572C54.825 14.786 20.362 44.966 0 83.72v56.874c6.705 36.96 19.81 73.05 40.496 107.443z" stroke="#2C84C6" fill="#2C84C6"/><path d="M40.496 248.037c-13.953-3.87-27.392-8.41-40.496-13.679v-93.763c6.706 36.96 19.81 73.05 40.496 107.442 23.512 21.644 49.042 38.8 76.063 51.963H47.623c-3.557-16.993-5.915-34.199-7.127-51.963zm0 0c92.871 5.378 182.913-18.124 259.504-67.484V67.014C279.217 36.321 248.947 12.581 213.397 0H166.29C98.273 66.116 54.427 152.445 40.496 248.037z" fill="#55ABF9"/><path d="M40.282 152.68c0-1.98-1.439-3.6-3.96-3.6H25.943v7.2h10.38c2.46 0 3.96-1.44 3.96-3.6zm-.78-15.72c0-1.92-1.44-3.3-3.539-3.3h-10.02v6.66h10.02c2.1 0 3.54-1.38 3.54-3.36zm-23.879 28.02v-40.02h22.68c7.918 0 11.7 5.16 11.7 10.2 0 4.98-3.06 8.34-6.84 9.18 4.26.66 7.62 4.74 7.62 9.78 0 5.82-3.9 10.86-11.76 10.86h-23.4zm40.8 0h10.319v-40.019H56.423v40.019zM71.903 145c0-12.719 9.72-20.699 21.658-20.699 8.941 0 14.34 4.74 17.1 9.72l-8.64 4.5c-1.5-2.64-4.559-5.1-8.46-5.1-6.539 0-11.159 5.04-11.159 11.579 0 6.54 4.62 11.58 11.16 11.58 2.94 0 5.94-1.2 7.38-2.4v-3.12h-9V142h19.318v15.899c-4.319 4.741-10.139 7.8-17.699 7.8-11.939 0-21.659-7.979-21.659-20.699zm-56.28 69.98v-40.02h22.68c7.918 0 11.7 5.16 11.7 10.2 0 4.98-3.06 8.34-6.84 9.18 4.26.66 7.62 4.74 7.62 9.78 0 5.82-3.9 10.86-11.76 10.86h-23.4zm24.66-12.3c0-1.98-1.44-3.6-3.96-3.6h-10.38v7.2h10.38c2.46 0 3.96-1.44 3.96-3.6zm-.78-15.72c0-1.92-1.44-3.3-3.54-3.3h-10.02v6.66h10.02c2.1 0 3.54-1.38 3.54-3.36zm39.239 28.02l-6.72-13.44h-5.28v13.44h-10.32v-40.02h20.04c8.88 0 13.92 5.88 13.92 13.32 0 6.96-4.26 10.68-7.98 12l8.16 14.7h-11.82zm1.14-26.76c0-2.7-2.28-4.26-4.98-4.26h-8.16v8.58h8.16c2.7 0 4.98-1.5 4.98-4.32zm14.16 6.78c0-12.179 9.18-20.699 21.42-20.699 12.24 0 21.358 8.52 21.358 20.699 0 12.18-9.119 20.699-21.358 20.699-12.24 0-21.42-8.519-21.42-20.699zm32.28 0c0-6.539-4.26-11.579-10.86-11.579-6.66 0-10.92 5.04-10.92 11.579 0 6.48 4.26 11.58 10.92 11.58 6.6 0 10.86-5.1 10.86-11.58zm23.34 19.98v-31.02h-11.219v-9h32.698v9h-11.159v31.02h-10.32zm53.339 0V198.9h-16.62v16.08h-10.319v-40.02h10.319v14.94h16.62v-14.94h10.319v40.02h-10.319zm17.52 0v-40.02h29.34v9h-19.02v6.24h18.6v9h-18.6v6.78h19.02v9h-29.34zm57.66 0l-6.72-13.44h-5.28v13.44h-10.32v-40.02h20.04c8.88 0 13.92 5.88 13.92 13.32 0 6.96-4.26 10.68-7.98 12l8.16 14.7h-11.82zm1.14-26.76c0-2.7-2.28-4.26-4.98-4.26h-8.16v8.58h8.16c2.7 0 4.98-1.5 4.98-4.32zm-75.443-89.652l-18.427-9.19-70.333-35.077L10 106.992l4.417 8.811L115.13 65.32l49.324 24.6v78.307h39.424v-58.644l12.067 6.018 4.398-8.82-16.465-8.212z" fill="#FFF"/></svg>